<?xml version="1.0" encoding="UTF-8" standalone="no"?>
<!-- Created with Inkscape (http://www.inkscape.org/) -->

<svg
   xmlns:dc="http://purl.org/dc/elements/1.1/"
   xmlns:cc="http://creativecommons.org/ns#"
   xmlns:rdf="http://www.w3.org/1999/02/22-rdf-syntax-ns#"
   xmlns:svg="http://www.w3.org/2000/svg"
   xmlns="http://www.w3.org/2000/svg"
   xmlns:sodipodi="http://sodipodi.sourceforge.net/DTD/sodipodi-0.dtd"
   xmlns:inkscape="http://www.inkscape.org/namespaces/inkscape"
   width="512"
   height="512"
   id="svg2"
   version="1.1"
   inkscape:version="0.48.4 r9939"
   sodipodi:docname="icon.svg"
   inkscape:export-filename="/home/thomas/Dropbox/Documents/eclipse/Ve/ic_launcher-web.png"
   inkscape:export-xdpi="90"
   inkscape:export-ydpi="90">
  <defs
     id="defs4" />
  <sodipodi:namedview
     id="base"
     pagecolor="#ffffff"
     bordercolor="#666666"
     borderopacity="1.0"
     inkscape:pageopacity="0.0"
     inkscape:pageshadow="2"
     inkscape:zoom="1.13"
     inkscape:cx="264.61443"
     inkscape:cy="260.50509"
     inkscape:document-units="px"
     inkscape:current-layer="layer1"
     showgrid="false"
     inkscape:window-width="1215"
     inkscape:window-height="882"
     inkscape:window-x="462"
     inkscape:window-y="24"
     inkscape:window-maximized="0" />
  <metadata
     id="metadata7">
    <rdf:RDF>
      <cc:Work
         rdf:about="">
        <dc:format>image/svg+xml</dc:format>
        <dc:type
           rdf:resource="http://purl.org/dc/dcmitype/StillImage" />
        <dc:title></dc:title>
      </cc:Work>
    </rdf:RDF>
  </metadata>
  <g
     inkscape:label="Layer 1"
     inkscape:groupmode="layer"
     id="layer1"
     transform="translate(0,-540.36218)">
    <path
       style="font-size:medium;font-style:normal;font-variant:normal;font-weight:normal;font-stretch:normal;text-indent:0;text-align:start;text-decoration:none;line-height:normal;letter-spacing:normal;word-spacing:normal;text-transform:none;direction:ltr;block-progression:tb;writing-mode:lr-tb;text-anchor:start;baseline-shift:baseline;color:#000000;fill:#000000;fill-opacity:0.27450982;fill-rule:evenodd;stroke:none;stroke-width:19.73420714999999959;marker:none;visibility:visible;display:inline;overflow:visible;enable-background:accumulate;font-family:Sans;-inkscape-font-specification:Sans"
       d="m 266.87881,629.08595 c -66.78499,0 -127.43183,20.17147 -171.795518,53.3625 -44.363694,33.19114 -72.59474,79.92578 -72.59474,131.88651 0,25.9804 7.067492,50.76037 19.68365,73.0764 12.092376,21.38942 29.266964,40.50666 50.202331,56.67321 -0.175451,0.57749 -0.101069,0.60811 -0.511655,1.50496 -1.775164,3.87712 -5.655108,9.8308 -10.263187,15.8311 -9.216153,12.00079 -21.711915,25.00649 -26.004083,28.83333 -2.39411,2.13648 -3.582937,5.54311 -3.03794,8.70534 0.544996,3.1622 2.805612,5.9743 5.776796,7.186 3.565883,1.4493 4.634969,0.933 6.230146,0.8728 1.595177,-0.06 3.250222,-0.2341 5.116545,-0.4815 3.732642,-0.4949 8.303689,-1.2865 13.603986,-2.3175 10.600586,-2.0621 23.979579,-4.9999 37.320679,-7.9457 13.3411,-2.94585 26.64735,-5.92525 36.92941,-7.97581 5.14104,-1.02533 9.53652,-1.80883 12.64088,-2.25725 1.55217,-0.22431 2.80722,-0.3499 3.49129,-0.39132 0.68407,-0.0414 1.29153,0.4205 -1.08351,-0.33102 29.05158,9.19312 60.90241,14.236 94.29492,14.236 66.785,0 127.43181,-20.17148 171.79552,-53.36252 44.3637,-33.19113 72.59474,-79.89582 72.59474,-131.85652 0,-51.96073 -28.23104,-98.69537 -72.59474,-131.88651 -44.36371,-33.19103 -105.01052,-53.3625 -171.79552,-53.3625 z"
       id="path2993-1"
       inkscape:connector-curvature="0"
       sodipodi:nodetypes="ssssccscsccsssscscsssss" />
    <path
       style="fill:#dcdcff;fill-opacity:1;fill-rule:evenodd;stroke:#000000;stroke-width:19.00629807;stroke-linecap:butt;stroke-linejoin:round;stroke-miterlimit:4;stroke-opacity:1;stroke-dasharray:none"
       d="m 482.2051,794.0765 c 0,97.05666 -105.16493,175.73663 -234.89247,175.73663 -32.43188,0 -63.32858,-4.91753 -91.43074,-13.81026 C 148.85636,953.7797 49.012927,979.80045 42.356389,977.09509 52.86578,967.72512 91.420696,925.67129 81.21857,918.34107 59.96498,902.44004 42.765393,883.50596 30.879183,862.48114 18.992976,841.4563 12.420164,818.34068 12.420164,794.0765 c 0,-97.05667 105.164946,-175.73664 234.892466,-175.73664 129.72754,0 234.89247,78.67997 234.89247,175.73664 z"
       id="path2993"
       inkscape:connector-curvature="0"
       sodipodi:nodetypes="sssccssss" />
    <g
       style="font-size:144px;font-style:normal;font-variant:normal;font-weight:normal;font-stretch:normal;line-height:125%;letter-spacing:0px;word-spacing:0px;fill:#000000;fill-opacity:1;stroke:none;font-family:Padauk;-inkscape-font-specification:Padauk"
       id="text3783"
       transform="matrix(0.92949242,0,0,0.94984814,3.4791619,42.449372)">
      <path
         d="m 379.44424,782.93201 c -0.11423,-17.20365 -4.89938,-30.93248 -14.35547,-41.18653 -9.34272,-10.25374 -21.81829,-15.38069 -37.42676,-15.38086 -17.43186,1.7e-4 -31.44552,4.95622 -42.04102,14.86817 -10.48196,9.91225 -16.52036,23.86894 -18.11523,41.87012 l 111.93848,-0.1709 M 255.88467,731.14978 c 8.43081,-10.25373 18.6847,-18.05809 30.76172,-23.41309 12.07661,-5.35462 25.63453,-8.03203 40.67382,-8.03222 25.74843,1.9e-4 46.14229,8.31724 61.18164,24.95117 15.03875,16.52034 22.55827,39.02194 22.5586,67.50488 l 0,15.38086 -144.58008,0 c 1.36701,21.76114 7.86114,38.33827 19.48242,49.73145 11.62088,11.39325 27.85622,17.08986 48.70606,17.08984 11.84869,2e-5 23.46978,-1.4811 34.86328,-4.44336 11.39293,-3.07614 22.78615,-7.63343 34.17968,-13.67187 l 0,29.73632 c -11.39353,4.78517 -23.01461,8.431 -34.86328,10.9375 -11.84923,2.50651 -23.8121,3.75977 -35.88867,3.75977 -19.02692,0 -35.60405,-3.41797 -49.73144,-10.25391 -14.12779,-6.94985 -25.57797,-17.20375 -34.35059,-30.76171 -8.31721,13.67189 -18.62807,23.92579 -30.93262,30.76171 -12.3048,6.83594 -26.60329,10.25391 -42.8955,10.25391 -21.53328,0 -38.28131,-5.29785 -50.24415,-15.89355 -11.96291,-10.70962 -17.94435,-25.63473 -17.94433,-44.7754 -2e-5,-21.53312 7.17771,-37.76846 21.5332,-48.70605 14.46935,-10.93738 36.00253,-16.40613 64.59961,-16.40625 l 44.0918,0 0,-3.07617 c -1.5e-4,-14.46926 -4.7853,-25.63462 -14.35547,-33.4961 -9.45651,-7.97509 -22.78657,-11.96272 -39.99023,-11.96289 -10.93759,1.7e-4 -21.59025,1.31039 -31.95801,3.93067 -10.3679,2.6206 -20.33696,6.55126 -29.90723,11.79199 l 0,-29.05273 c 11.50712,-4.44318 22.67247,-7.74721 33.49609,-9.91211 10.82349,-2.27845 21.36222,-3.41778 31.61622,-3.41797 16.17826,1.9e-4 30.30585,2.73457 42.38281,8.20312 12.1906,5.46894 21.36214,13.21632 27.51465,23.24219 m -50.07325,68.35938 c -25.40699,9e-5 -43.00951,2.90536 -52.80761,8.71582 -9.79824,5.81062 -14.69732,15.72272 -14.69727,29.73632 -5e-5,11.16541 3.64578,20.05212 10.9375,26.66016 7.40553,6.49417 17.43156,9.74123 30.07813,9.74121 17.43153,2e-5 31.38822,-6.15232 41.87011,-18.45703 10.59556,-12.41857 15.89341,-28.88177 15.89356,-49.38965 l 0,-7.00683 -31.27442,0"
         style="font-size:350px;font-family:Sans;-inkscape-font-specification:Sans"
         id="path3788"
         inkscape:connector-curvature="0" />
      <path
         d="m 204.70998,635.80033 34.69239,0 0,34.52148 -34.69239,0 0,-34.52148 m -66.82129,0 34.69239,0 0,34.52148 -34.69239,0 0,-34.52148"
         style="font-size:350px;font-family:Sans;-inkscape-font-specification:Sans"
         id="path3790"
         inkscape:connector-curvature="0"
         sodipodi:nodetypes="cccccccccc" />
      <path
         d="m 337.85196,889.53029 c 6.26615,7.06379 10.93735,13.55792 14.01365,19.48242 3.0761,6.03838 4.6141,11.79196 4.6143,17.26074 -2e-4,10.13993 -3.4181,17.77338 -10.25392,22.90039 -6.83606,5.24082 -16.97603,7.86126 -30.41992,7.86133 -5.24099,-7e-5 -10.36793,-0.34187 -15.38086,-1.02539 -4.89917,-0.68366 -9.79826,-1.70905 -14.69727,-3.07617 l 0,-22.3877 c 3.87362,1.93681 7.91822,3.30399 12.13379,4.10156 4.21541,0.91142 9.00056,1.36714 14.35547,1.36719 6.7219,-5e-5 11.79188,-1.36723 15.20996,-4.10156 3.41785,-2.73442 5.12683,-6.72204 5.12695,-11.96289 -1.2e-4,-3.418 -1.25337,-7.63349 -3.75976,-12.64649 -2.39269,-4.8991 -6.15245,-10.82357 -11.2793,-17.77343 l 20.33691,0"
         style="font-size:350px;font-family:Sans;-inkscape-font-specification:Sans"
         id="path3792"
         inkscape:connector-curvature="0"
         sodipodi:nodetypes="ccccccccccccccc" />
    </g>
  </g>
</svg>
